<svg width="64" height="64" viewBox="0 0 64 64" fill="none" xmlns="http://www.w3.org/2000/svg">
<path d="M0 8.88889C0 3.97969 3.97969 0 8.88889 0H55.1111C60.0203 0 64 3.97969 64 8.88889V64H8.88889C3.97969 64 0 60.0203 0 55.1111V8.88889Z" fill="#215D7F"/>
<path d="M32 31.9999L48 15.9999" stroke="white" stroke-width="2.66408" stroke-linecap="round" stroke-linejoin="round"/>
<path d="M43.3167 20.6832C40.4802 17.8382 36.6789 16.1617 32.6652 15.9856C28.6515 15.8095 24.718 17.1466 21.6432 19.7323C18.5684 22.3181 16.5763 25.9639 16.0614 29.9483C15.5464 33.9327 16.546 37.9652 18.8623 41.2477C21.1787 44.5302 24.643 46.8235 28.5695 47.6737C32.496 48.5239 36.5987 47.869 40.0654 45.8386C43.5321 43.8082 46.1102 40.5504 47.2895 36.7098C48.4688 32.8693 48.1632 28.7259 46.4334 25.0999" stroke="white" stroke-width="2.66408" stroke-linecap="round" stroke-linejoin="round"/>
<path d="M37.65 26.3499C36.3287 25.0324 34.5876 24.2192 32.7292 24.0518C30.8707 23.8844 29.0124 24.3732 27.4769 25.4334C25.9414 26.4936 24.8257 28.0582 24.3238 29.8554C23.8218 31.6526 23.9653 33.5688 24.7292 35.2712C25.4931 36.9737 26.8292 38.3547 28.5054 39.1745C30.1817 39.9943 32.0921 40.2011 33.9049 39.7588C35.7177 39.3166 37.3183 38.2533 38.4288 36.7537C39.5392 35.2541 40.0892 33.4129 39.9833 31.55" stroke="white" stroke-width="2.66408" stroke-linecap="round" stroke-linejoin="round"/>
</svg>
