<svg width="64" height="64" viewBox="0 0 64 64" fill="none" xmlns="http://www.w3.org/2000/svg">
<path d="M0 8.88889C0 3.97969 3.97969 0 8.88889 0H55.1111C60.0203 0 64 3.97969 64 8.88889V64H8.88889C3.97969 64 0 60.0203 0 55.1111V8.88889Z" fill="#3A9DD7"/>
<path d="M31.9999 20.0001C18.6666 20.0001 13.3333 32.0001 13.3333 32.0001C13.3333 32.0001 18.6666 44.0001 31.9999 44.0001C45.3333 44.0001 50.6666 32.0001 50.6666 32.0001C50.6666 32.0001 45.3333 20.0001 31.9999 20.0001Z" stroke="white" stroke-width="2.66408" stroke-linecap="round" stroke-linejoin="round"/>
<path d="M31.9999 38.6666C35.6818 38.6666 38.6666 35.6819 38.6666 32C38.6666 28.3181 35.6818 25.3333 31.9999 25.3333C28.318 25.3333 25.3333 28.3181 25.3333 32C25.3333 35.6819 28.318 38.6666 31.9999 38.6666Z" stroke="white" stroke-width="2.66408" stroke-linecap="round" stroke-linejoin="round"/>
</svg>
