<svg width="205" height="55" viewBox="0 0 205 55" fill="none" xmlns="http://www.w3.org/2000/svg">
<path fill-rule="evenodd" clip-rule="evenodd" d="M13.4393 45.4575C33.1878 35.1431 31.6865 24.9745 30.2801 19.0082C35.4122 46.1515 2.86675 41.075 0.23808 11.8786C-1.53489 27.754 6.9651 40.6056 13.4393 45.4575ZM30.2801 19.0082C30.1138 18.1344 29.9099 17.2261 29.664 16.2846C29.79 17.05 30.033 17.9648 30.2801 19.0082Z" fill="url(#paint0_linear_377_82)"/>
<path fill-rule="evenodd" clip-rule="evenodd" d="M13.4393 45.4575C16.8285 48.4998 23.2957 51.6308 23.2957 51.6308C38.9951 41.8584 41.4764 26.4507 29.664 16.2846C30.5115 21.4214 36.6418 33.3389 13.4389 45.4575H13.4393Z" fill="url(#paint1_linear_377_82)"/>
<path fill-rule="evenodd" clip-rule="evenodd" d="M0.733452 8.43104C17.3645 4.95226 33.2855 11.6018 38.093 22.8849C44.3165 42.0896 26.0758 52.636 26.0758 52.636C31.0976 54.0518 35.5456 55.7904 46.859 53.6826C50.5071 37.2562 59.8098 25.4595 75.7891 19.1277C69.9252 17.3444 62.6072 16.7342 51.9423 22.8672C42.4684 11.5752 30.5329 5.49099 17.2143 5.49017C11.9159 5.49017 6.40244 6.45226 0.733452 8.43104Z" fill="url(#paint2_linear_377_82)"/>
<path d="M49.6493 52.8848C63.2548 48.8456 74.0535 36.3964 76.113 21.6707C68.1888 24.4621 53.238 34.2858 49.6493 52.8848Z" fill="#3A9DD7"/>
<path fill-rule="evenodd" clip-rule="evenodd" d="M19.9386 14.7452H19.9061C19.5712 14.7476 19.2363 14.7846 18.9027 14.8593C15.3773 15.6469 13.4151 20.2976 14.5207 25.248C15.6247 30.1976 19.3788 33.5713 22.9029 32.7837C26.4284 31.997 28.3901 27.3463 27.2849 22.395C26.288 17.9291 23.1348 14.7452 19.9381 14.7452H19.9386Z" fill="url(#paint3_radial_377_82)"/>
<path fill-rule="evenodd" clip-rule="evenodd" d="M48.9771 6.82593C47.3904 11.4413 48.886 16.1404 52.3178 17.3202C55.7488 18.5023 59.8176 15.7179 61.4039 11.1025C62.9913 6.48799 61.495 1.78926 58.0627 0.60832C57.5296 0.424773 56.9809 0.337311 56.4293 0.337311C53.4267 0.337311 50.3167 2.92833 48.9771 6.82552V6.82593Z" fill="url(#paint4_radial_377_82)"/>
<path d="M92.8905 26.5644H88.2524V6.33728H92.8905V26.5644Z" fill="white"/>
<path d="M104.961 15.4695C104.128 15.4695 102.998 15.8859 101.571 16.719V26.5641H96.9035V12.1381H99.7874L100.591 13.655C101.462 13.0604 102.409 12.5796 103.43 12.2125C104.45 11.8462 105.416 11.6622 106.329 11.6622C108.113 11.6622 109.405 12.1735 110.208 13.1943C111.011 14.2155 111.413 15.6091 111.413 17.3736V26.5645H106.745V17.7308C106.745 17.0368 106.595 16.4866 106.299 16.0793C106.001 15.6732 105.555 15.4695 104.961 15.4695Z" fill="white"/>
<path d="M119.142 26.8913C118.349 26.8913 117.387 26.7624 116.258 26.5045C115.129 26.2475 114.226 25.8504 113.552 25.3153L114.92 22.2805C115.534 22.5786 116.213 22.8212 116.956 23.0097C117.699 23.1982 118.328 23.2918 118.844 23.2918C119.319 23.2918 119.74 23.208 120.107 23.0393C120.474 22.8713 120.657 22.6377 120.657 22.3396C120.657 22.0825 120.484 21.8341 120.137 21.5964C119.79 21.3582 119.309 21.1402 118.695 20.9414C117.248 20.4458 116.059 19.8319 115.128 19.0981C114.196 18.3644 113.731 17.4318 113.731 16.3018C113.731 14.8741 114.265 13.749 115.336 12.9261C116.406 12.1032 117.873 11.6914 119.736 11.6914C120.488 11.6914 121.366 11.8158 122.367 12.0634C123.368 12.311 124.215 12.6933 124.909 13.2082L123.571 16.2431C122.183 15.628 120.955 15.3208 119.885 15.3208C119.428 15.3208 119.052 15.41 118.754 15.5882C118.457 15.7672 118.308 15.9955 118.308 16.2727C118.308 16.5901 118.933 16.9666 120.181 17.4027C123.491 18.5533 125.146 20.1588 125.146 22.2213C125.146 23.7086 124.635 24.8587 123.615 25.6714C122.594 26.4852 121.102 26.8913 119.14 26.8913H119.142Z" fill="white"/>
<path d="M132.847 12.465H136.058L136.89 16.0945H132.847V20.9131C132.847 21.5877 133.015 22.1322 133.352 22.549C133.689 22.9654 134.156 23.174 134.75 23.174C135.364 23.174 135.979 23.0155 136.593 22.6981L137.931 25.9399C137.594 26.2183 137.078 26.4659 136.385 26.6839C135.691 26.902 135.048 27.0112 134.453 27.0112C132.63 27.0112 131.133 26.5353 129.964 25.5835C128.794 24.6317 128.209 23.2828 128.209 21.5376V16.0949H126.129V12.4654H128.209V8.80677L132.848 8.09311V12.4654L132.847 12.465Z" fill="white"/>
<path d="M144.501 26.5645H139.833V12.1386H144.501V26.5645ZM144.738 7.58724C144.738 8.28201 144.486 8.88152 143.981 9.38699C143.475 9.89246 142.865 10.145 142.152 10.145C141.458 10.145 140.858 9.89246 140.353 9.38699C139.848 8.88111 139.596 8.28201 139.596 7.58724C139.596 6.87358 139.848 6.2634 140.353 5.75752C140.859 5.25204 141.458 4.99951 142.152 4.99951C142.865 4.99951 143.475 5.25204 143.981 5.75752C144.486 6.2634 144.738 6.87358 144.738 7.58724Z" fill="white"/>
<path d="M153.063 12.465H156.274L157.106 16.0945H153.063V20.9131C153.063 21.5877 153.231 22.1322 153.568 22.549C153.905 22.9654 154.371 23.174 154.966 23.174C155.579 23.174 156.194 23.0155 156.809 22.6981L158.147 25.9399C157.809 26.2183 157.294 26.4659 156.6 26.6839C155.907 26.902 155.263 27.0112 154.668 27.0112C152.846 27.0112 151.349 26.5353 150.18 25.5835C149.009 24.6317 148.425 23.2828 148.425 21.5376V16.0949H146.345V12.4654H148.425V8.80677L153.064 8.09311V12.4654L153.063 12.465Z" fill="white"/>
<path d="M166.411 23.2627C167.303 23.2627 168.423 22.8369 169.77 21.9832V12.1677H174.438V26.5936H171.852L170.752 25.0772C169.86 25.6525 168.913 26.128 167.913 26.5049C166.912 26.8815 165.955 27.07 165.044 27.07C163.24 27.07 161.937 26.5542 161.135 25.5236C160.331 24.4929 159.93 23.0952 159.93 21.3295V12.1681H164.598V20.9722C164.598 21.6863 164.746 22.2468 165.044 22.6533C165.342 23.0598 165.797 23.2631 166.412 23.2631L166.411 23.2627Z" fill="white"/>
<path d="M183 12.465H186.211L187.044 16.0945H183V20.9131C183 21.5877 183.168 22.1322 183.506 22.549C183.843 22.9654 184.309 23.174 184.903 23.174C185.517 23.174 186.132 23.0155 186.747 22.6981L188.085 25.9399C187.747 26.2183 187.231 26.4659 186.538 26.6839C185.845 26.902 185.201 27.0112 184.606 27.0112C182.782 27.0112 181.286 26.5353 180.117 25.5835C178.947 24.6317 178.362 23.2828 178.362 21.5376V16.0949H176.282V12.4654H178.362V8.80677L183 8.09311V12.4654V12.465Z" fill="white"/>
<path d="M200.184 19.3663C200.184 18.2556 199.901 17.3436 199.336 16.6295C198.772 15.9158 198.023 15.559 197.091 15.559C196.121 15.559 195.348 15.9015 194.773 16.5852C194.198 17.2697 193.911 18.1771 193.911 19.3072C193.911 20.4372 194.193 21.3442 194.759 22.0292C195.323 22.7128 196.081 23.0549 197.032 23.0549C197.984 23.0549 198.747 22.7182 199.322 22.0439C199.897 21.3693 200.184 20.477 200.184 19.3667L200.184 19.3663ZM197.003 26.8917C195.437 26.8917 194.059 26.5985 192.871 26.0142C191.681 25.4295 190.755 24.5672 190.091 23.4269C189.426 22.2866 189.095 20.9127 189.095 19.3067C189.095 17.7603 189.436 16.4115 190.12 15.2609C190.804 14.1116 191.745 13.2296 192.945 12.6145C194.143 12.0002 195.516 11.6922 197.061 11.6922C198.628 11.6922 200.01 11.9948 201.209 12.5997C202.408 13.2045 203.34 14.0824 204.004 15.2317C204.668 16.3819 205 17.7603 205 19.3667C205 20.9131 204.658 22.2517 203.974 23.3817C203.291 24.5126 202.344 25.3802 201.135 25.9851C199.926 26.5899 198.549 26.8925 197.002 26.8925L197.003 26.8917Z" fill="white"/>
<path d="M109.301 30.8702V51.097H104.663V42.8575H97.1411V51.097H92.5039V30.8702L97.1411 30.692V39.1685H104.663V30.8702H109.301Z" fill="white"/>
<path d="M123.512 43.8988C123.512 42.7881 123.229 41.8761 122.664 41.162C122.1 40.4484 121.351 40.0915 120.42 40.0915C119.448 40.0915 118.675 40.4336 118.102 41.1173C117.526 41.8022 117.239 42.7084 117.239 43.8393C117.239 44.9693 117.521 45.8764 118.087 46.5613C118.651 47.245 119.409 47.5874 120.36 47.5874C121.312 47.5874 122.075 47.2507 122.65 46.5765C123.225 45.9018 123.512 45.0095 123.512 43.8992V43.8988ZM120.33 51.4243C118.764 51.4243 117.387 51.1311 116.199 50.5468C115.009 49.962 114.083 49.0993 113.419 47.9594C112.754 46.8191 112.423 45.4452 112.423 43.8393C112.423 42.2929 112.764 40.944 113.448 39.7934C114.132 38.6441 115.073 37.7617 116.273 37.1466C117.472 36.5327 118.844 36.2247 120.39 36.2247C121.956 36.2247 123.338 36.5274 124.537 37.1322C125.736 37.737 126.668 38.6145 127.332 39.7639C127.996 40.9144 128.328 42.2929 128.328 43.8988C128.328 45.4452 127.986 46.7838 127.302 47.9139C126.619 49.0447 125.672 49.9124 124.463 50.5172C123.254 51.122 121.877 51.4247 120.33 51.4247V51.4243Z" fill="white"/>
<path d="M153.955 41.6379V51.097H149.317V42.2625C149.317 41.5295 149.203 40.9694 148.976 40.5826C148.748 40.1954 148.326 40.0028 147.712 40.0028C147.296 40.0028 146.83 40.117 146.315 40.3441C145.799 40.5724 145.224 40.8746 144.59 41.2515V41.6383V51.0974H139.953V42.2629C139.953 41.5299 139.837 40.9699 139.61 40.5831C139.382 40.1958 138.96 40.0033 138.347 40.0033C137.93 40.0033 137.459 40.1174 136.934 40.3445C136.409 40.5728 135.829 40.875 135.195 41.252V51.0978H130.528V36.6719H133.412L134.214 38.1887C135.086 37.5933 136.008 37.1137 136.979 36.7462C137.95 36.3787 138.862 36.196 139.714 36.196C141.657 36.196 143.014 36.8201 143.787 38.0688C144.639 37.5141 145.53 37.0632 146.462 36.7162C147.395 36.3693 148.276 36.196 149.109 36.196C150.833 36.196 152.072 36.6674 152.825 37.6089C153.579 38.5505 153.955 39.8936 153.955 41.6388L153.955 41.6379Z" fill="white"/>
<path d="M161.625 51.097H156.957V36.6711H161.625V51.097ZM161.863 32.1197C161.863 32.8133 161.611 33.414 161.105 33.9195C160.599 34.4254 159.99 34.6775 159.276 34.6775C158.582 34.6775 157.983 34.425 157.477 33.9195C156.972 33.414 156.719 32.8137 156.719 32.1197C156.719 31.4053 156.972 30.7955 157.477 30.29C157.983 29.7841 158.582 29.5312 159.276 29.5312C159.99 29.5312 160.599 29.7845 161.105 30.29C161.611 30.7955 161.863 31.4048 161.863 32.1197Z" fill="white"/>
<path d="M172.773 40.002C171.941 40.002 170.811 40.4184 169.384 41.2516V51.0966H164.716V36.6707H167.6L168.403 38.1875C169.275 37.5929 170.222 37.1121 171.243 36.745C172.262 36.3787 173.229 36.1948 174.141 36.1948C175.925 36.1948 177.218 36.706 178.021 37.7268C178.824 38.748 179.225 40.1412 179.225 41.9061V51.097H174.557V42.2629C174.557 41.5694 174.408 41.0191 174.111 40.6118C173.813 40.2057 173.368 40.002 172.773 40.002Z" fill="white"/>
<path d="M186.865 51.097H182.197V36.6711H186.865V51.097ZM187.103 32.1197C187.103 32.8133 186.85 33.414 186.345 33.9195C185.839 34.4254 185.231 34.6775 184.517 34.6775C183.822 34.6775 183.224 34.425 182.718 33.9195C182.213 33.414 181.96 32.8137 181.96 32.1197C181.96 31.4053 182.213 30.7955 182.718 30.29C183.224 29.7841 183.822 29.5312 184.517 29.5312C185.231 29.5312 185.839 29.7845 186.345 30.29C186.85 30.7955 187.103 31.4048 187.103 32.1197Z" fill="white"/>
<path d="M194.714 51.4242C193.921 51.4242 192.96 51.2953 191.83 51.0374C190.701 50.7804 189.799 50.3833 189.125 49.8483L190.492 46.8134C191.106 47.1115 191.786 47.3542 192.528 47.5426C193.272 47.7311 193.9 47.8247 194.416 47.8247C194.892 47.8247 195.313 47.741 195.68 47.5722C196.046 47.4043 196.23 47.1702 196.23 46.8725C196.23 46.6155 196.056 46.3666 195.71 46.1293C195.363 45.8911 194.882 45.6731 194.268 45.4743C192.821 44.9787 191.632 44.3644 190.701 43.6311C189.769 42.8973 189.303 41.9648 189.303 40.8347C189.303 39.407 189.838 38.2819 190.909 37.459C191.979 36.6362 193.445 36.2243 195.309 36.2243C196.061 36.2243 196.938 36.3487 197.94 36.5963C198.94 36.8439 199.788 37.2262 200.481 37.7411L199.143 40.7756C197.756 40.1609 196.528 39.8538 195.458 39.8538C195.002 39.8538 194.625 39.9429 194.327 40.1211C194.031 40.3001 193.881 40.5284 193.881 40.8056C193.881 41.123 194.506 41.4995 195.754 41.9356C199.065 43.0862 200.72 44.6917 200.72 46.7543C200.72 48.2415 200.209 49.3921 199.188 50.2047C198.167 51.0185 196.676 51.4246 194.714 51.4246V51.4242Z" fill="white"/>
<defs>
<linearGradient id="paint0_linear_377_82" x1="22.3899" y1="36.9565" x2="11.9624" y2="18.934" gradientUnits="userSpaceOnUse">
<stop stop-color="#005E8F"/>
<stop offset="1" stop-color="#3AAAE1"/>
</linearGradient>
<linearGradient id="paint1_linear_377_82" x1="20.7114" y1="49.3075" x2="28.0253" y2="23.1312" gradientUnits="userSpaceOnUse">
<stop stop-color="#0073B6"/>
<stop offset="1" stop-color="#7BB8E5"/>
</linearGradient>
<linearGradient id="paint2_linear_377_82" x1="38.2063" y1="14.2577" x2="29.8254" y2="49.1257" gradientUnits="userSpaceOnUse">
<stop stop-color="#79C4B1"/>
<stop offset="1" stop-color="#008391"/>
</linearGradient>
<radialGradient id="paint3_radial_377_82" cx="0" cy="0" r="1" gradientUnits="userSpaceOnUse" gradientTransform="translate(20.8845 23.4547) scale(7.12219 7.68934)">
<stop stop-color="#00A0E3"/>
<stop offset="1" stop-color="#2092C9"/>
</radialGradient>
<radialGradient id="paint4_radial_377_82" cx="0" cy="0" r="1" gradientUnits="userSpaceOnUse" gradientTransform="translate(55.1958 8.45182) scale(6.83483 7.39978)">
<stop stop-color="#79C4B1"/>
<stop offset="1" stop-color="#79C4B1"/>
</radialGradient>
</defs>
</svg>
