<svg width="107" height="101" viewBox="0 0 107 101" fill="none" xmlns="http://www.w3.org/2000/svg">
<path fill-rule="evenodd" clip-rule="evenodd" d="M30.9382 41.3529C49.0378 31.8997 47.6619 22.5801 46.3728 17.112C51.0765 41.989 21.2483 37.3363 18.8391 10.5776C17.2142 25.1276 25.0045 36.9061 30.9382 41.3529ZM46.3728 17.112C46.2205 16.3111 46.0336 15.4787 45.8082 14.6157C45.9237 15.3172 46.1464 16.1557 46.3728 17.112Z" fill="url(#paint0_linear_377_155)"/>
<path fill-rule="evenodd" clip-rule="evenodd" d="M30.9382 41.3532C34.0444 44.1415 39.9716 47.011 39.9716 47.011C54.3602 38.0546 56.6344 23.9333 45.8082 14.616C46.585 19.3239 52.2034 30.2464 30.9378 41.3532H30.9382Z" fill="url(#paint1_linear_377_155)"/>
<path fill-rule="evenodd" clip-rule="evenodd" d="M19.2932 7.41798C34.5356 4.22966 49.1273 10.324 53.5335 20.665C59.2373 38.2663 42.5196 47.9321 42.5196 47.9321C47.1221 49.2297 51.1988 50.8231 61.5675 48.8914C64.9111 33.8364 73.4371 23.0247 88.0822 17.2215C82.7079 15.5871 76.0009 15.0279 66.2264 20.6488C57.5435 10.2996 46.6045 4.72341 34.3979 4.72266C29.5419 4.72266 24.4888 5.60441 19.2932 7.41798Z" fill="url(#paint2_linear_377_155)"/>
<path d="M64.1249 48.16C76.5945 44.458 86.4916 33.0482 88.379 19.552C81.1165 22.1103 67.4139 31.1138 64.1249 48.16Z" fill="#3A9DD7"/>
<path fill-rule="evenodd" clip-rule="evenodd" d="M36.8948 13.2048H36.8651C36.5581 13.2071 36.2512 13.241 35.9454 13.3095C32.7143 14.0313 30.916 18.2937 31.9293 22.8308C32.9411 27.3671 36.3817 30.4591 39.6117 29.7373C42.8427 29.0162 44.6407 24.7539 43.6277 20.216C42.7141 16.1229 39.8242 13.2048 36.8944 13.2048H36.8948Z" fill="url(#paint3_radial_377_155)"/>
<path fill-rule="evenodd" clip-rule="evenodd" d="M63.5088 5.94687C62.0546 10.1769 63.4253 14.4837 66.5706 15.5649C69.7152 16.6484 73.4443 14.0964 74.8981 9.86642C76.353 5.63715 74.9816 1.33073 71.8359 0.248382C71.3473 0.0801597 70.8444 0 70.3388 0C67.587 0 64.7365 2.37468 63.5088 5.94649V5.94687Z" fill="url(#paint4_radial_377_155)"/>
<path d="M4.2508 77.6526H0V59.1143H4.2508V77.6526Z" fill="white"/>
<path d="M15.3132 67.484C14.55 67.484 13.5148 67.8656 12.207 68.6292V77.6523H7.92873V64.4308H10.5719L11.308 65.821C12.1069 65.2761 12.9747 64.8354 13.9102 64.4989C14.8449 64.1632 15.7303 63.9946 16.5669 63.9946C18.202 63.9946 19.3864 64.4632 20.1226 65.3987C20.8587 66.3347 21.2265 67.612 21.2265 69.2291V77.6526H16.9483V69.5565C16.9483 68.9205 16.8114 68.4162 16.5394 68.0429C16.2663 67.6707 15.8578 67.484 15.3132 67.484Z" fill="white"/>
<path d="M28.3101 77.9521C27.5834 77.9521 26.7024 77.8339 25.6673 77.5976C24.6321 77.362 23.8054 76.9981 23.1874 76.5077L24.4407 73.7262C25.0034 73.9994 25.6263 74.2218 26.3067 74.3946C26.9883 74.5673 27.5645 74.6531 28.037 74.6531C28.4729 74.6531 28.8589 74.5764 29.1951 74.4217C29.531 74.2678 29.6992 74.0536 29.6992 73.7804C29.6992 73.5448 29.5404 73.3171 29.2226 73.0992C28.9047 72.881 28.4639 72.6811 27.9012 72.499C26.5745 72.0447 25.4849 71.4821 24.6318 70.8096C23.7779 70.1371 23.351 69.2824 23.351 68.2467C23.351 66.9382 23.8411 65.9071 24.8221 65.1529C25.8027 64.3987 27.147 64.0212 28.8547 64.0212C29.5446 64.0212 30.3488 64.1353 31.2666 64.3622C32.1836 64.5891 32.9599 64.9395 33.5956 65.4114L32.3694 68.1929C31.098 67.6292 29.9719 67.3477 28.9913 67.3477C28.573 67.3477 28.2281 67.4293 27.955 67.5927C27.683 67.7568 27.5461 67.966 27.5461 68.22C27.5461 68.5109 28.119 68.856 29.2628 69.2557C32.2968 70.3102 33.8134 71.7817 33.8134 73.672C33.8134 75.0351 33.3451 76.0892 32.4097 76.834C31.4742 77.5799 30.1073 77.9521 28.3089 77.9521H28.3101Z" fill="white"/>
<path d="M40.871 64.7302H43.8139L44.5771 68.0567H40.871V72.473C40.871 73.0913 41.0248 73.5903 41.3344 73.9723C41.6428 74.3539 42.0705 74.5451 42.6151 74.5451C43.1778 74.5451 43.7413 74.3998 44.3048 74.1089L45.531 77.0801C45.2218 77.3353 44.7494 77.5622 44.1137 77.762C43.478 77.9619 42.8882 78.062 42.3428 78.062C40.672 78.062 39.3006 77.6258 38.2289 76.7534C37.1565 75.8811 36.6209 74.6448 36.6209 73.0454V68.0571H34.7139V64.7306H36.6209V61.3775L40.8717 60.7234V64.7306L40.871 64.7302Z" fill="white"/>
<path d="M51.5523 77.6524H47.2741V64.4309H51.5523V77.6524ZM51.7697 60.2596C51.7697 60.8964 51.5388 61.4458 51.0754 61.9091C50.612 62.3724 50.053 62.6038 49.3993 62.6038C48.7636 62.6038 48.2137 62.3724 47.7506 61.9091C47.2876 61.4454 47.0563 60.8964 47.0563 60.2596C47.0563 59.6055 47.2876 59.0463 47.7506 58.5827C48.2141 58.1194 48.7636 57.8879 49.3993 57.8879C50.053 57.8879 50.612 58.1194 51.0754 58.5827C51.5388 59.0463 51.7697 59.6055 51.7697 60.2596Z" fill="white"/>
<path d="M59.3991 64.7302H62.342L63.1052 68.0567H59.3995V72.473C59.3995 73.0913 59.5533 73.5903 59.8625 73.9723C60.1709 74.3539 60.5986 74.5451 61.1432 74.5451C61.7056 74.5451 62.269 74.3998 62.8325 74.1089L64.0587 77.0801C63.7495 77.3353 63.2771 77.5622 62.6414 77.762C62.0057 77.9619 61.4159 78.062 60.8705 78.062C59.2001 78.062 57.8283 77.6258 56.7567 76.7534C55.6843 75.8811 55.149 74.6448 55.149 73.0454V68.0571H53.242V64.7306H55.149V61.3775L59.3998 60.7234V64.7306L59.3991 64.7302Z" fill="white"/>
<path d="M71.6331 74.6264C72.4508 74.6264 73.4766 74.2361 74.7118 73.4537V64.4578H78.9901V77.6792H76.6193L75.6112 76.2894C74.7935 76.8167 73.9261 77.2525 73.009 77.5979C72.092 77.943 71.2152 78.1158 70.3798 78.1158C68.7266 78.1158 67.5328 77.6431 66.797 76.6985C66.0609 75.7539 65.6931 74.4728 65.6931 72.8546V64.4581H69.9713V72.5272C69.9713 73.1816 70.1071 73.6953 70.3802 74.0679C70.6529 74.4405 71.07 74.6268 71.6335 74.6268L71.6331 74.6264Z" fill="white"/>
<path d="M86.8372 64.7302H89.7801L90.5433 68.0567H86.8372V72.473C86.8372 73.0913 86.991 73.5903 87.3006 73.9723C87.609 74.3539 88.0367 74.5451 88.5814 74.5451C89.1437 74.5451 89.7072 74.3998 90.2706 74.1089L91.4969 77.0801C91.1877 77.3353 90.7149 77.5622 90.0792 77.762C89.4439 77.9619 88.8537 78.062 88.3083 78.062C86.6375 78.062 85.2657 77.6258 84.1944 76.7534C83.122 75.8811 82.5864 74.6448 82.5864 73.0454V68.0571H80.6793V64.7306H82.5864V61.3775L86.8372 60.7234V64.7306V64.7302Z" fill="white"/>
<path d="M102.586 71.0556C102.586 70.0376 102.327 69.2017 101.809 68.5473C101.292 67.8932 100.606 67.5662 99.7517 67.5662C98.8621 67.5662 98.1535 67.88 97.6273 68.5066C97.0995 69.134 96.837 69.9657 96.837 71.0014C96.837 72.0371 97.0954 72.8684 97.6137 73.4961C98.1313 74.1227 98.8257 74.4362 99.6976 74.4362C100.569 74.4362 101.269 74.1276 101.796 73.5097C102.323 72.8913 102.586 72.0736 102.586 71.0559L102.586 71.0556ZM99.6705 77.9527C98.2351 77.9527 96.9728 77.684 95.8835 77.1485C94.793 76.6126 93.9441 75.8223 93.3359 74.7772C92.7265 73.7321 92.423 72.4729 92.423 71.001C92.423 69.5837 92.7355 68.3475 93.3626 67.293C93.9888 66.2396 94.8517 65.4312 95.9512 64.8675C97.0499 64.3045 98.3077 64.0222 99.7243 64.0222C101.16 64.0222 102.427 64.2996 103.526 64.8539C104.625 65.4083 105.479 66.2129 106.087 67.2662C106.696 68.3204 107 69.5837 107 71.0559C107 72.4732 106.686 73.7001 106.06 74.7358C105.434 75.7722 104.566 76.5674 103.458 77.1217C102.35 77.6761 101.088 77.9534 99.6701 77.9534L99.6705 77.9527Z" fill="white"/>
<path d="M19.2913 81.5989V100.137H15.0405V92.5853H8.14651V100.137H3.89646V81.5989L8.14651 81.4355V89.2043H15.0405V81.5989H19.2913Z" fill="white"/>
<path d="M32.3156 93.5397C32.3156 92.5217 32.0564 91.6859 31.5389 91.0314C31.0213 90.3773 30.3352 90.0503 29.4814 90.0503C28.5914 90.0503 27.8827 90.3638 27.3569 90.9904C26.8292 91.6181 26.5666 92.4487 26.5666 93.4851C26.5666 94.5208 26.825 95.3521 27.3434 95.9799C27.8609 96.6065 28.5553 96.9203 29.4272 96.9203C30.2991 96.9203 30.9987 96.6117 31.5253 95.9938C32.0523 95.3755 32.3156 94.5577 32.3156 93.5401V93.5397ZM29.3997 100.437C27.9644 100.437 26.7024 100.168 25.6131 99.6326C24.5227 99.0967 23.6737 98.306 23.0651 97.2613C22.4558 96.2162 22.1522 94.957 22.1522 93.4851C22.1522 92.0679 22.4652 90.8316 23.0922 89.7771C23.7185 88.7237 24.5813 87.915 25.6808 87.3512C26.7795 86.7886 28.0373 86.5063 29.4539 86.5063C30.8893 86.5063 32.1561 86.7837 33.2552 87.3381C34.3539 87.8924 35.2081 88.6966 35.8167 89.75C36.4253 90.8045 36.7293 92.0679 36.7293 93.5397C36.7293 94.957 36.4159 96.1838 35.7897 97.2195C35.1634 98.256 34.2956 99.0512 33.1875 99.6055C32.079 100.16 30.8174 100.437 29.3997 100.437V100.437Z" fill="white"/>
<path d="M60.2172 91.4673V100.137H55.9664V92.0397C55.9664 91.368 55.8618 90.8546 55.6538 90.5001C55.4446 90.1453 55.058 89.9688 54.4953 89.9688C54.1139 89.9688 53.6869 90.0734 53.2145 90.2815C52.7417 90.4907 52.2151 90.7677 51.6336 91.1132V91.4677V100.137H47.3835V92.0401C47.3835 91.3683 47.2778 90.855 47.0698 90.5005C46.8607 90.1456 46.474 89.9691 45.9117 89.9691C45.5303 89.9691 45.0985 90.0738 44.6174 90.2819C44.1363 90.4911 43.6044 90.7681 43.0233 91.1136V100.137H38.7461V86.9159H41.3889L42.1239 88.3061C42.9236 87.7604 43.7684 87.3208 44.658 86.984C45.5479 86.6472 46.3841 86.4797 47.165 86.4797C48.9453 86.4797 50.1896 87.0518 50.8982 88.1962C51.6783 87.6878 52.4957 87.2746 53.3499 86.9566C54.2041 86.6385 55.0125 86.4797 55.7757 86.4797C57.3555 86.4797 58.4907 86.9118 59.1816 87.7747C59.8719 88.6376 60.2168 89.8686 60.2168 91.4681L60.2172 91.4673Z" fill="white"/>
<path d="M67.2469 100.137H62.9687V86.9153H67.2469V100.137ZM67.4643 82.744C67.4643 83.3796 67.2334 83.9302 66.77 84.3935C66.3066 84.8571 65.7476 85.0882 65.0939 85.0882C64.4574 85.0882 63.9083 84.8568 63.4452 84.3935C62.9822 83.9302 62.7501 83.38 62.7501 82.744C62.7501 82.0892 62.9822 81.5303 63.4452 81.0671C63.9086 80.6034 64.4574 80.3716 65.0939 80.3716C65.7476 80.3716 66.3066 80.6038 66.77 81.0671C67.2334 81.5303 67.4643 82.0888 67.4643 82.744Z" fill="white"/>
<path d="M77.4641 89.9684C76.7009 89.9684 75.6657 90.35 74.3579 91.1136V100.137H70.0796V86.9152H72.7228L73.4589 88.3054C74.2578 87.7604 75.1256 87.3197 76.0611 86.9833C76.9958 86.6476 77.8812 86.479 78.7178 86.479C80.3529 86.479 81.5373 86.9475 82.2735 87.8831C83.0096 88.8191 83.3771 90.096 83.3771 91.7135V100.137H79.0992V92.0405C79.0992 91.4049 78.9623 90.9006 78.6903 90.5273C78.4172 90.1551 78.0087 89.9684 77.4641 89.9684Z" fill="white"/>
<path d="M90.379 100.137H86.1007V86.9153H90.379V100.137ZM90.5975 82.744C90.5975 83.3796 90.3654 83.9302 89.9024 84.3935C89.439 84.8571 88.8812 85.0882 88.2274 85.0882C87.5906 85.0882 87.0418 84.8568 86.5788 84.3935C86.1154 83.9302 85.8837 83.38 85.8837 82.744C85.8837 82.0892 86.1158 81.5303 86.5788 81.0671C87.0418 80.6034 87.5906 80.3716 88.2274 80.3716C88.8812 80.3716 89.439 80.6038 89.9024 81.0671C90.3658 81.5303 90.5975 82.0888 90.5975 82.744Z" fill="white"/>
<path d="M97.5727 100.437C96.846 100.437 95.9651 100.319 94.9299 100.082C93.8948 99.8466 93.068 99.4827 92.45 98.9923L93.7033 96.2108C94.266 96.484 94.8889 96.7065 95.5694 96.8792C96.2509 97.0519 96.8272 97.1377 97.2996 97.1377C97.7356 97.1377 98.1215 97.061 98.4578 96.9063C98.7937 96.7524 98.9618 96.5379 98.9618 96.265C98.9618 96.0294 98.8031 95.8014 98.4852 95.5839C98.1674 95.3656 97.7265 95.1657 97.1638 94.9836C95.8383 94.5294 94.7479 93.9664 93.8948 93.2942C93.0409 92.6217 92.614 91.767 92.614 90.7314C92.614 89.4228 93.1041 88.3917 94.0851 87.6375C95.0657 86.8833 96.4101 86.5059 98.1177 86.5059C98.8076 86.5059 99.6114 86.6199 100.529 86.8468C101.446 87.0738 102.223 87.4241 102.859 87.896L101.632 90.6772C100.361 90.1138 99.2353 89.8323 98.2546 89.8323C97.8364 89.8323 97.4915 89.914 97.2184 90.0773C96.9464 90.2414 96.8095 90.4506 96.8095 90.7046C96.8095 90.9956 97.3824 91.3407 98.5262 91.7403C101.56 92.7948 103.077 94.2663 103.077 96.1566C103.077 97.5197 102.609 98.5742 101.673 99.319C100.738 100.065 99.371 100.437 97.5727 100.437V100.437Z" fill="white"/>
<defs>
<linearGradient id="paint0_linear_377_155" x1="39.1415" y1="33.5616" x2="29.5846" y2="17.044" gradientUnits="userSpaceOnUse">
<stop stop-color="#005E8F"/>
<stop offset="1" stop-color="#3AAAE1"/>
</linearGradient>
<linearGradient id="paint1_linear_377_155" x1="37.603" y1="44.8817" x2="44.3063" y2="20.8909" gradientUnits="userSpaceOnUse">
<stop stop-color="#0073B6"/>
<stop offset="1" stop-color="#7BB8E5"/>
</linearGradient>
<linearGradient id="paint2_linear_377_155" x1="53.6373" y1="12.7582" x2="45.9561" y2="44.7149" gradientUnits="userSpaceOnUse">
<stop stop-color="#79C4B1"/>
<stop offset="1" stop-color="#008391"/>
</linearGradient>
<radialGradient id="paint3_radial_377_155" cx="0" cy="0" r="1" gradientUnits="userSpaceOnUse" gradientTransform="translate(37.7617 21.1872) scale(6.52754 7.04734)">
<stop stop-color="#00A0E3"/>
<stop offset="1" stop-color="#2092C9"/>
</radialGradient>
<radialGradient id="paint4_radial_377_155" cx="0" cy="0" r="1" gradientUnits="userSpaceOnUse" gradientTransform="translate(69.2083 7.43701) scale(6.26417 6.78195)">
<stop stop-color="#79C4B1"/>
<stop offset="1" stop-color="#79C4B1"/>
</radialGradient>
</defs>
</svg>
