<svg width="205" height="55" viewBox="0 0 205 55" fill="none" xmlns="http://www.w3.org/2000/svg">
<path fill-rule="evenodd" clip-rule="evenodd" d="M13.4393 45.1202C33.1878 34.8058 31.6865 24.6372 30.2801 18.6709C35.4122 45.8142 2.86675 40.7377 0.23808 11.5413C-1.53489 27.4167 6.9651 40.2683 13.4393 45.1202ZM30.2801 18.6709C30.1138 17.7971 29.9099 16.8888 29.664 15.9473C29.79 16.7127 30.033 17.6275 30.2801 18.6709Z" fill="url(#paint0_linear_377_181)"/>
<path fill-rule="evenodd" clip-rule="evenodd" d="M13.4393 45.1202C16.8285 48.1625 23.2957 51.2935 23.2957 51.2935C38.9951 41.5211 41.4764 26.1134 29.664 15.9473C30.5115 21.0841 36.6418 33.0016 13.4389 45.1202H13.4393Z" fill="url(#paint1_linear_377_181)"/>
<path fill-rule="evenodd" clip-rule="evenodd" d="M0.733452 8.09376C17.3645 4.61498 33.2855 11.2646 38.093 22.5476C44.3165 41.7523 26.0758 52.2987 26.0758 52.2987C31.0976 53.7145 35.5456 55.4531 46.859 53.3454C50.5071 36.9189 59.8098 25.1222 75.7891 18.7904C69.9252 17.0071 62.6072 16.3969 51.9423 22.5299C42.4684 11.2379 30.5329 5.15371 17.2143 5.15289C11.9159 5.15289 6.40244 6.11498 0.733452 8.09376Z" fill="url(#paint2_linear_377_181)"/>
<path d="M49.6493 52.5475C63.2548 48.5082 74.0535 36.059 76.113 21.3334C68.1888 24.1248 53.238 33.9484 49.6493 52.5475Z" fill="#3A9DD7"/>
<path fill-rule="evenodd" clip-rule="evenodd" d="M19.9386 14.4078H19.9061C19.5712 14.4103 19.2363 14.4473 18.9027 14.522C15.3773 15.3096 13.4151 19.9602 14.5207 24.9107C15.6247 29.8603 19.3788 33.234 22.9029 32.4464C26.4284 31.6596 28.3901 27.009 27.2849 22.0577C26.288 17.5918 23.1348 14.4078 19.9381 14.4078H19.9386Z" fill="url(#paint3_radial_377_181)"/>
<path fill-rule="evenodd" clip-rule="evenodd" d="M48.9771 6.48862C47.3904 11.104 48.886 15.8031 52.3178 16.9828C55.7488 18.165 59.8176 15.3806 61.4039 10.7652C62.9913 6.15068 61.495 1.45195 58.0627 0.271009C57.5296 0.0874622 56.9809 0 56.4293 0C53.4267 0 50.3167 2.59101 48.9771 6.48821V6.48862Z" fill="url(#paint4_radial_377_181)"/>
<path d="M92.8905 26.2272H88.2524V6H92.8905V26.2272Z" fill="#092A3D"/>
<path d="M104.961 15.1322C104.128 15.1322 102.998 15.5486 101.571 16.3817V26.2268H96.9035V11.8009H99.7874L100.591 13.3177C101.462 12.7231 102.409 12.2423 103.43 11.8752C104.45 11.5089 105.416 11.325 106.329 11.325C108.113 11.325 109.405 11.8362 110.208 12.857C111.011 13.8782 111.413 15.2718 111.413 17.0363V26.2272H106.745V17.3935C106.745 16.6996 106.595 16.1493 106.299 15.742C106.001 15.3359 105.555 15.1322 104.961 15.1322Z" fill="#092A3D"/>
<path d="M119.142 26.554C118.349 26.554 117.387 26.4251 116.258 26.1672C115.129 25.9101 114.226 25.5131 113.552 24.978L114.92 21.9431C115.534 22.2413 116.213 22.4839 116.956 22.6724C117.699 22.8609 118.328 22.9545 118.844 22.9545C119.319 22.9545 119.74 22.8707 120.107 22.702C120.474 22.534 120.657 22.3004 120.657 22.0023C120.657 21.7452 120.484 21.4968 120.137 21.259C119.79 21.0209 119.309 20.8029 118.695 20.6041C117.248 20.1085 116.059 19.4946 115.128 18.7608C114.196 18.0271 113.731 17.0945 113.731 15.9645C113.731 14.5368 114.265 13.4117 115.336 12.5888C116.406 11.7659 117.873 11.3541 119.736 11.3541C120.488 11.3541 121.366 11.4785 122.367 11.7261C123.368 11.9737 124.215 12.356 124.909 12.8709L123.571 15.9058C122.183 15.2907 120.955 14.9835 119.885 14.9835C119.428 14.9835 119.052 15.0726 118.754 15.2509C118.457 15.4299 118.308 15.6582 118.308 15.9354C118.308 16.2528 118.933 16.6293 120.181 17.0654C123.491 18.2159 125.146 19.8215 125.146 21.884C125.146 23.3713 124.635 24.5214 123.615 25.334C122.594 26.1479 121.102 26.554 119.14 26.554H119.142Z" fill="#092A3D"/>
<path d="M132.847 12.1277H136.058L136.89 15.7571H132.847V20.5758C132.847 21.2504 133.015 21.7949 133.352 22.2117C133.689 22.6281 134.156 22.8367 134.75 22.8367C135.364 22.8367 135.979 22.6782 136.593 22.3607L137.931 25.6026C137.594 25.881 137.078 26.1286 136.385 26.3466C135.691 26.5647 135.048 26.6739 134.453 26.6739C132.63 26.6739 131.133 26.198 129.964 25.2462C128.794 24.2944 128.209 22.9455 128.209 21.2003V15.7576H126.129V12.1281H128.209V8.46946L132.848 7.7558V12.1281L132.847 12.1277Z" fill="#092A3D"/>
<path d="M144.501 26.2271H139.833V11.8012H144.501V26.2271ZM144.738 7.2499C144.738 7.94467 144.486 8.54418 143.981 9.04965C143.475 9.55512 142.865 9.80765 142.152 9.80765C141.458 9.80765 140.858 9.55512 140.353 9.04965C139.848 8.54377 139.596 7.94467 139.596 7.2499C139.596 6.53624 139.848 5.92606 140.353 5.42018C140.859 4.9147 141.458 4.66217 142.152 4.66217C142.865 4.66217 143.475 4.9147 143.981 5.42018C144.486 5.92606 144.738 6.53624 144.738 7.2499Z" fill="#092A3D"/>
<path d="M153.063 12.1277H156.274L157.106 15.7571H153.063V20.5758C153.063 21.2504 153.231 21.7949 153.568 22.2117C153.905 22.6281 154.371 22.8367 154.966 22.8367C155.579 22.8367 156.194 22.6782 156.809 22.3607L158.147 25.6026C157.809 25.881 157.294 26.1286 156.6 26.3466C155.907 26.5647 155.263 26.6739 154.668 26.6739C152.846 26.6739 151.349 26.198 150.18 25.2462C149.009 24.2944 148.425 22.9455 148.425 21.2003V15.7576H146.345V12.1281H148.425V8.46946L153.064 7.7558V12.1281L153.063 12.1277Z" fill="#092A3D"/>
<path d="M166.411 22.9253C167.303 22.9253 168.423 22.4995 169.77 21.6459V11.8304H174.438V26.2563H171.852L170.752 24.7399C169.86 25.3152 168.913 25.7907 167.913 26.1676C166.912 26.5441 165.955 26.7326 165.044 26.7326C163.24 26.7326 161.937 26.2169 161.135 25.1862C160.331 24.1556 159.93 22.7578 159.93 20.9921V11.8308H164.598V20.6349C164.598 21.349 164.746 21.9095 165.044 22.316C165.342 22.7225 165.797 22.9258 166.412 22.9258L166.411 22.9253Z" fill="#092A3D"/>
<path d="M183 12.1277H186.211L187.044 15.7571H183V20.5758C183 21.2504 183.168 21.7949 183.506 22.2117C183.843 22.6281 184.309 22.8367 184.903 22.8367C185.517 22.8367 186.132 22.6782 186.747 22.3607L188.085 25.6026C187.747 25.881 187.231 26.1286 186.538 26.3466C185.845 26.5647 185.201 26.6739 184.606 26.6739C182.782 26.6739 181.286 26.198 180.117 25.2462C178.947 24.2944 178.362 22.9455 178.362 21.2003V15.7576H176.282V12.1281H178.362V8.46946L183 7.7558V12.1281V12.1277Z" fill="#092A3D"/>
<path d="M200.184 19.0289C200.184 17.9182 199.901 17.0062 199.336 16.2922C198.772 15.5785 198.023 15.2217 197.091 15.2217C196.121 15.2217 195.348 15.5641 194.773 16.2478C194.198 16.9323 193.911 17.8398 193.911 18.9698C193.911 20.0998 194.193 21.0069 194.759 21.6918C195.323 22.3755 196.081 22.7175 197.032 22.7175C197.984 22.7175 198.747 22.3808 199.322 21.7066C199.897 21.0319 200.184 20.1397 200.184 19.0294L200.184 19.0289ZM197.003 26.5544C195.437 26.5544 194.059 26.2612 192.871 25.6769C191.681 25.0922 190.755 24.2299 190.091 23.0896C189.426 21.9493 189.095 20.5753 189.095 18.9694C189.095 17.423 189.436 16.0741 190.12 14.9236C190.804 13.7742 191.745 12.8922 192.945 12.2771C194.143 11.6628 195.516 11.3549 197.061 11.3549C198.628 11.3549 200.01 11.6575 201.209 12.2623C202.408 12.8672 203.34 13.7451 204.004 14.8944C204.668 16.0446 205 17.423 205 19.0294C205 20.5758 204.658 21.9144 203.974 23.0444C203.291 24.1752 202.344 25.0429 201.135 25.6477C199.926 26.2526 198.549 26.5552 197.002 26.5552L197.003 26.5544Z" fill="#092A3D"/>
<path d="M109.301 30.5329V50.7597H104.663V42.5202H97.1411V50.7597H92.5039V30.5329L97.1411 30.3547V38.8312H104.663V30.5329H109.301Z" fill="#092A3D"/>
<path d="M123.512 43.5615C123.512 42.4507 123.229 41.5388 122.664 40.8247C122.1 40.111 121.351 39.7542 120.42 39.7542C119.448 39.7542 118.675 40.0963 118.102 40.7799C117.526 41.4648 117.239 42.3711 117.239 43.5019C117.239 44.632 117.521 45.539 118.087 46.2239C118.651 46.9076 119.409 47.2501 120.36 47.2501C121.312 47.2501 122.075 46.9134 122.65 46.2391C123.225 45.5645 123.512 44.6722 123.512 43.5619V43.5615ZM120.33 51.0869C118.764 51.0869 117.387 50.7937 116.199 50.2094C115.009 49.6247 114.083 48.762 113.419 47.6221C112.754 46.4818 112.423 45.1079 112.423 43.5019C112.423 41.9555 112.764 40.6067 113.448 39.4561C114.132 38.3068 115.073 37.4243 116.273 36.8092C117.472 36.1954 118.844 35.8874 120.39 35.8874C121.956 35.8874 123.338 36.19 124.537 36.7949C125.736 37.3997 126.668 38.2772 127.332 39.4265C127.996 40.5771 128.328 41.9555 128.328 43.5615C128.328 45.1079 127.986 46.4465 127.302 47.5765C126.619 48.7074 125.672 49.575 124.463 50.1799C123.254 50.7847 121.877 51.0873 120.33 51.0873V51.0869Z" fill="#092A3D"/>
<path d="M153.955 41.3007V50.7597H149.317V41.9252C149.317 41.1923 149.203 40.6322 148.976 40.2454C148.748 39.8581 148.326 39.6656 147.712 39.6656C147.296 39.6656 146.83 39.7797 146.315 40.0068C145.799 40.2351 145.224 40.5373 144.59 40.9143V41.3011V50.7601H139.953V41.9256C139.953 41.1927 139.837 40.6326 139.61 40.2458C139.382 39.8586 138.96 39.666 138.347 39.666C137.93 39.666 137.459 39.7801 136.934 40.0072C136.409 40.2355 135.829 40.5377 135.195 40.9147V50.7605H130.528V36.3346H133.412L134.214 37.8514C135.086 37.256 136.008 36.7764 136.979 36.4089C137.95 36.0414 138.862 35.8587 139.714 35.8587C141.657 35.8587 143.014 36.4828 143.787 37.7315C144.639 37.1768 145.53 36.7259 146.462 36.379C147.395 36.032 148.276 35.8587 149.109 35.8587C150.833 35.8587 152.072 36.3301 152.825 37.2716C153.579 38.2132 153.955 39.5563 153.955 41.3015L153.955 41.3007Z" fill="#092A3D"/>
<path d="M161.625 50.7597H156.957V36.3338H161.625V50.7597ZM161.863 31.7825C161.863 32.476 161.611 33.0767 161.105 33.5822C160.599 34.0881 159.99 34.3402 159.276 34.3402C158.582 34.3402 157.983 34.0877 157.477 33.5822C156.972 33.0767 156.719 32.4764 156.719 31.7825C156.719 31.068 156.972 30.4582 157.477 29.9527C157.983 29.4469 158.582 29.1939 159.276 29.1939C159.99 29.1939 160.599 29.4473 161.105 29.9527C161.611 30.4582 161.863 31.0676 161.863 31.7825Z" fill="#092A3D"/>
<path d="M172.773 39.6647C171.941 39.6647 170.811 40.0811 169.384 40.9142V50.7592H164.716V36.3333H167.6L168.403 37.8502C169.275 37.2556 170.222 36.7747 171.243 36.4077C172.262 36.0414 173.229 35.8574 174.141 35.8574C175.925 35.8574 177.218 36.3686 178.021 37.3894C178.824 38.4107 179.225 39.8039 179.225 41.5687V50.7597H174.557V41.9256C174.557 41.232 174.408 40.6818 174.111 40.2745C173.813 39.8684 173.368 39.6647 172.773 39.6647Z" fill="#092A3D"/>
<path d="M186.865 50.7597H182.197V36.3338H186.865V50.7597ZM187.103 31.7825C187.103 32.476 186.85 33.0767 186.345 33.5822C185.839 34.0881 185.231 34.3402 184.517 34.3402C183.822 34.3402 183.224 34.0877 182.718 33.5822C182.213 33.0767 181.96 32.4764 181.96 31.7825C181.96 31.068 182.213 30.4582 182.718 29.9527C183.224 29.4469 183.822 29.1939 184.517 29.1939C185.231 29.1939 185.839 29.4473 186.345 29.9527C186.85 30.4582 187.103 31.0676 187.103 31.7825Z" fill="#092A3D"/>
<path d="M194.714 51.087C193.921 51.087 192.96 50.958 191.83 50.7002C190.701 50.4431 189.799 50.046 189.125 49.511L190.492 46.4761C191.106 46.7742 191.786 47.0169 192.528 47.2054C193.272 47.3938 193.9 47.4875 194.416 47.4875C194.892 47.4875 195.313 47.4037 195.68 47.2349C196.046 47.067 196.23 46.8329 196.23 46.5352C196.23 46.2782 196.056 46.0293 195.71 45.792C195.363 45.5539 194.882 45.3358 194.268 45.1371C192.821 44.6414 191.632 44.0272 190.701 43.2938C189.769 42.56 189.303 41.6275 189.303 40.4975C189.303 39.0697 189.838 37.9446 190.909 37.1218C191.979 36.2989 193.445 35.887 195.309 35.887C196.061 35.887 196.938 36.0114 197.94 36.259C198.94 36.5066 199.788 36.8889 200.481 37.4039L199.143 40.4383C197.756 39.8236 196.528 39.5165 195.458 39.5165C195.002 39.5165 194.625 39.6056 194.327 39.7838C194.031 39.9628 193.881 40.1911 193.881 40.4683C193.881 40.7857 194.506 41.1623 195.754 41.5983C199.065 42.7489 200.72 44.3544 200.72 46.417C200.72 47.9042 200.209 49.0548 199.188 49.8674C198.167 50.6813 196.676 51.0874 194.714 51.0874V51.087Z" fill="#092A3D"/>
<defs>
<linearGradient id="paint0_linear_377_181" x1="22.3899" y1="36.6191" x2="11.9624" y2="18.5967" gradientUnits="userSpaceOnUse">
<stop stop-color="#005E8F"/>
<stop offset="1" stop-color="#3AAAE1"/>
</linearGradient>
<linearGradient id="paint1_linear_377_181" x1="20.7114" y1="48.9702" x2="28.0253" y2="22.7938" gradientUnits="userSpaceOnUse">
<stop stop-color="#0073B6"/>
<stop offset="1" stop-color="#7BB8E5"/>
</linearGradient>
<linearGradient id="paint2_linear_377_181" x1="38.2063" y1="13.9205" x2="29.8254" y2="48.7884" gradientUnits="userSpaceOnUse">
<stop stop-color="#79C4B1"/>
<stop offset="1" stop-color="#008391"/>
</linearGradient>
<radialGradient id="paint3_radial_377_181" cx="0" cy="0" r="1" gradientUnits="userSpaceOnUse" gradientTransform="translate(20.8845 23.1173) scale(7.12219 7.68934)">
<stop stop-color="#00A0E3"/>
<stop offset="1" stop-color="#2092C9"/>
</radialGradient>
<radialGradient id="paint4_radial_377_181" cx="0" cy="0" r="1" gradientUnits="userSpaceOnUse" gradientTransform="translate(55.1958 8.11451) scale(6.83483 7.39978)">
<stop stop-color="#79C4B1"/>
<stop offset="1" stop-color="#79C4B1"/>
</radialGradient>
</defs>
</svg>
